<svg width="160" height="160" viewBox="0 0 160 160" fill="none" xmlns="http://www.w3.org/2000/svg">
<g clip-path="url(#clip0_105_207)">
<rect x="20" width="10" height="10" fill="#293035"/>
<rect x="30" y="10" width="10" height="10" fill="#293035"/>
<rect x="10" y="10" width="10" height="10" fill="#293035"/>
<rect x="10" y="20" width="10" height="10" fill="#293035"/>
<rect x="10" y="30" width="10" height="10" fill="#293035"/>
<rect x="40" y="20" width="10" height="10" fill="#293035"/>
<rect x="50" y="20" width="10" height="10" fill="#293035"/>
<rect x="60" y="20" width="10" height="10" fill="#293035"/>
<rect x="70" y="20" width="10" height="10" fill="#293035"/>
<rect x="80" y="20" width="10" height="10" fill="#293035"/>
<rect x="90" y="20" width="10" height="10" fill="#293035"/>
<rect x="100" y="20" width="10" height="10" fill="#293035"/>
<rect x="130" y="30" width="10" height="10" fill="#293035"/>
<rect x="130" y="20" width="10" height="10" fill="#293035"/>
<rect x="130" y="10" width="10" height="10" fill="#293035"/>
<rect x="110" y="10" width="10" height="10" fill="#293035"/>
<rect x="120" width="10" height="10" fill="#293035"/>
<rect x="40" y="50" width="10" height="10" fill="#293035"/>
<rect x="50" y="50" width="10" height="10" fill="#293035"/>
<rect x="130" y="120" width="10" height="10" fill="#293035"/>
<rect x="110" y="110" width="10" height="10" fill="#293035"/>
<rect x="20" y="130" width="10" height="10" fill="#293035"/>
<rect x="40" y="150" width="10" height="10" fill="#293035"/>
<rect x="50" y="150" width="10" height="10" fill="#293035"/>
<rect x="60" y="150" width="10" height="10" fill="#293035"/>
<rect x="90" y="150" width="10" height="10" fill="#293035"/>
<rect x="110" y="140" width="10" height="10" fill="#293035"/>
<rect x="80" y="150" width="10" height="10" fill="#293035"/>
<rect x="70" y="150" width="10" height="10" fill="#293035"/>
<rect x="110" y="60" width="10" height="10" fill="#293035"/>
<rect x="110" y="70" width="10" height="10" fill="#293035"/>
<rect x="40" y="70" width="10" height="10" fill="#293035"/>
<rect x="50" y="70" width="10" height="10" fill="#293035"/>
<rect x="50" y="60" width="10" height="10" fill="#293035"/>
<rect x="100" y="70" width="10" height="10" fill="#293035"/>
<rect x="30" y="140" width="10" height="10" fill="#293035"/>
<rect x="100" y="150" width="10" height="10" fill="#293035"/>
<rect x="120" y="130" width="10" height="10" fill="#293035"/>
<rect x="80" y="110" width="10" height="10" fill="#293035"/>
<rect x="90" y="120" width="10" height="10" fill="#293035"/>
<rect x="100" y="120" width="10" height="10" fill="#293035"/>
<rect x="70" y="120" width="10" height="10" fill="#293035"/>
<rect x="60" y="120" width="10" height="10" fill="#293035"/>
<rect x="50" y="110" width="10" height="10" fill="#293035"/>
<rect x="100" y="50" width="10" height="10" fill="#293035"/>
<rect x="110" y="50" width="10" height="10" fill="#293035"/>
<rect x="150" y="80" width="10" height="10" fill="#293035"/>
<rect x="140" y="90" width="10" height="10" fill="#293035"/>
<rect x="140" y="100" width="10" height="10" fill="#293035"/>
<rect x="140" y="110" width="10" height="10" fill="#293035"/>
<rect x="10" y="120" width="10" height="10" fill="#293035"/>
<rect y="100" width="10" height="10" fill="#293035"/>
<rect x="10" y="110" width="10" height="10" fill="#293035"/>
<rect y="90" width="10" height="10" fill="#293035"/>
<rect y="80" width="10" height="10" fill="#293035"/>
<rect y="70" width="10" height="10" fill="#293035"/>
<rect x="150" y="70" width="10" height="10" fill="#293035"/>
<rect y="60" width="10" height="10" fill="#293035"/>
<rect y="50" width="10" height="10" fill="#293035"/>
<rect y="40" width="10" height="10" fill="#293035"/>
<rect x="150" y="60" width="10" height="10" fill="#293035"/>
<rect x="150" y="50" width="10" height="10" fill="#293035"/>
<rect x="140" y="40" width="10" height="10" fill="#293035"/>
<rect x="80" y="100" width="10" height="10" fill="#E28948"/>
<rect x="80" y="90" width="10" height="10" fill="#E28948"/>
<rect x="70" y="90" width="10" height="10" fill="#E28948"/>
<rect x="20" y="30" width="10" height="10" fill="#E28948"/>
<rect x="20" y="20" width="10" height="10" fill="#E28948"/>
<rect x="120" y="30" width="10" height="10" fill="#E28948"/>
<rect x="120" y="20" width="10" height="10" fill="#E28948"/>
<rect x="90" y="90" width="10" height="10" fill="#E28948"/>
<rect x="60" y="30" width="10" height="10" fill="#D2DEE7"/>
<rect x="70" y="40" width="10" height="10" fill="#D2DEE7"/>
<rect x="10" y="50" width="10" height="10" fill="#D2DEE7"/>
<rect x="20" y="50" width="10" height="10" fill="#D2DEE7"/>
<rect x="40" y="140" width="10" height="10" fill="#D2DEE7"/>
<rect x="140" y="50" width="10" height="10" fill="#D2DEE7"/>
<rect x="90" y="40" width="10" height="10" fill="#D2DEE7"/>
<rect x="80" y="30" width="10" height="10" fill="#D2DEE7"/>
<rect x="40" y="60" width="10" height="10" fill="#4CA1C5"/>
<rect x="100" y="60" width="10" height="10" fill="#4CA1C5"/>
<rect x="20" y="10" width="10" height="10" fill="#7D8A93"/>
<rect x="30" y="20" width="10" height="10" fill="#7D8A93"/>
<rect x="40" y="30" width="10" height="10" fill="#7D8A93"/>
<rect x="50" y="40" width="10" height="10" fill="#7D8A93"/>
<rect x="60" y="40" width="10" height="10" fill="#7D8A93"/>
<rect x="60" y="50" width="10" height="10" fill="#7D8A93"/>
<rect x="60" y="60" width="10" height="10" fill="#7D8A93"/>
<rect x="60" y="70" width="10" height="10" fill="#7D8A93"/>
<rect x="70" y="70" width="10" height="10" fill="#7D8A93"/>
<rect x="80" y="120" width="10" height="10" fill="#7D8A93"/>
<rect x="70" y="50" width="10" height="10" fill="#7D8A93"/>
<rect x="80" y="50" width="10" height="10" fill="#7D8A93"/>
<rect x="70" y="60" width="10" height="10" fill="#7D8A93"/>
<rect x="80" y="60" width="10" height="10" fill="#7D8A93"/>
<rect x="80" y="70" width="10" height="10" fill="#7D8A93"/>
<rect x="90" y="80" width="10" height="10" fill="#7D8A93"/>
<rect x="90" y="70" width="10" height="10" fill="#7D8A93"/>
<rect x="90" y="60" width="10" height="10" fill="#7D8A93"/>
<rect x="90" y="50" width="10" height="10" fill="#7D8A93"/>
<rect x="80" y="40" width="10" height="10" fill="#7D8A93"/>
<rect x="70" y="30" width="10" height="10" fill="#7D8A93"/>
<rect x="50" y="30" width="10" height="10" fill="#7D8A93"/>
<rect x="30" y="30" width="10" height="10" fill="#7D8A93"/>
<rect x="30" y="40" width="10" height="10" fill="#7D8A93"/>
<rect x="40" y="40" width="10" height="10" fill="#7D8A93"/>
<rect x="30" y="50" width="10" height="10" fill="#7D8A93"/>
<rect x="30" y="60" width="10" height="10" fill="#7D8A93"/>
<rect x="30" y="70" width="10" height="10" fill="#7D8A93"/>
<rect x="30" y="80" width="10" height="10" fill="#7D8A93"/>
<rect x="40" y="80" width="10" height="10" fill="#7D8A93"/>
<rect x="40" y="90" width="10" height="10" fill="#7D8A93"/>
<rect x="40" y="100" width="10" height="10" fill="#7D8A93"/>
<rect x="40" y="110" width="10" height="10" fill="#7D8A93"/>
<rect x="40" y="120" width="10" height="10" fill="#7D8A93"/>
<rect x="50" y="120" width="10" height="10" fill="#7D8A93"/>
<rect x="50" y="80" width="10" height="10" fill="#7D8A93"/>
<rect x="50" y="90" width="10" height="10" fill="#7D8A93"/>
<rect x="50" y="100" width="10" height="10" fill="#7D8A93"/>
<rect x="60" y="100" width="10" height="10" fill="#7D8A93"/>
<rect x="70" y="100" width="10" height="10" fill="#7D8A93"/>
<rect x="70" y="110" width="10" height="10" fill="#7D8A93"/>
<rect x="60" y="90" width="10" height="10" fill="#7D8A93"/>
<rect x="60" y="110" width="10" height="10" fill="#7D8A93"/>
<rect x="60" y="80" width="10" height="10" fill="#7D8A93"/>
<rect x="70" y="80" width="10" height="10" fill="#7D8A93"/>
<rect x="80" y="80" width="10" height="10" fill="#7D8A93"/>
<rect x="30" y="90" width="10" height="10" fill="#7D8A93"/>
<rect x="30" y="100" width="10" height="10" fill="#7D8A93"/>
<rect x="30" y="110" width="10" height="10" fill="#7D8A93"/>
<rect x="30" y="120" width="10" height="10" fill="#7D8A93"/>
<rect x="30" y="130" width="10" height="10" fill="#7D8A93"/>
<rect x="40" y="130" width="10" height="10" fill="#7D8A93"/>
<rect x="50" y="130" width="10" height="10" fill="#7D8A93"/>
<rect x="50" y="140" width="10" height="10" fill="#7D8A93"/>
<rect x="60" y="140" width="10" height="10" fill="#7D8A93"/>
<rect x="70" y="140" width="10" height="10" fill="#7D8A93"/>
<rect x="80" y="140" width="10" height="10" fill="#7D8A93"/>
<rect x="90" y="140" width="10" height="10" fill="#7D8A93"/>
<rect x="100" y="140" width="10" height="10" fill="#7D8A93"/>
<rect x="60" y="130" width="10" height="10" fill="#7D8A93"/>
<rect x="70" y="130" width="10" height="10" fill="#7D8A93"/>
<rect x="80" y="130" width="10" height="10" fill="#7D8A93"/>
<rect x="90" y="130" width="10" height="10" fill="#7D8A93"/>
<rect x="100" y="130" width="10" height="10" fill="#7D8A93"/>
<rect x="110" y="130" width="10" height="10" fill="#7D8A93"/>
<rect x="110" y="120" width="10" height="10" fill="#7D8A93"/>
<rect x="120" y="120" width="10" height="10" fill="#7D8A93"/>
<rect x="20" y="120" width="10" height="10" fill="#7D8A93"/>
<rect x="20" y="110" width="10" height="10" fill="#7D8A93"/>
<rect x="20" y="100" width="10" height="10" fill="#7D8A93"/>
<rect x="20" y="90" width="10" height="10" fill="#7D8A93"/>
<rect x="20" y="80" width="10" height="10" fill="#7D8A93"/>
<rect x="20" y="70" width="10" height="10" fill="#7D8A93"/>
<rect x="20" y="60" width="10" height="10" fill="#7D8A93"/>
<rect x="20" y="40" width="10" height="10" fill="#7D8A93"/>
<rect x="10" y="40" width="10" height="10" fill="#7D8A93"/>
<rect x="10" y="60" width="10" height="10" fill="#7D8A93"/>
<rect x="10" y="70" width="10" height="10" fill="#7D8A93"/>
<rect x="10" y="80" width="10" height="10" fill="#7D8A93"/>
<rect x="10" y="90" width="10" height="10" fill="#7D8A93"/>
<rect x="10" y="100" width="10" height="10" fill="#7D8A93"/>
<rect x="100" y="90" width="10" height="10" fill="#7D8A93"/>
<rect x="100" y="100" width="10" height="10" fill="#7D8A93"/>
<rect x="100" y="110" width="10" height="10" fill="#7D8A93"/>
<rect x="90" y="110" width="10" height="10" fill="#7D8A93"/>
<rect x="90" y="100" width="10" height="10" fill="#7D8A93"/>
<rect x="110" y="100" width="10" height="10" fill="#7D8A93"/>
<rect x="110" y="90" width="10" height="10" fill="#7D8A93"/>
<rect x="110" y="80" width="10" height="10" fill="#7D8A93"/>
<rect x="100" y="80" width="10" height="10" fill="#7D8A93"/>
<rect x="120" y="110" width="10" height="10" fill="#7D8A93"/>
<rect x="130" y="110" width="10" height="10" fill="#7D8A93"/>
<rect x="130" y="100" width="10" height="10" fill="#7D8A93"/>
<rect x="130" y="90" width="10" height="10" fill="#7D8A93"/>
<rect x="130" y="80" width="10" height="10" fill="#7D8A93"/>
<rect x="140" y="80" width="10" height="10" fill="#7D8A93"/>
<rect x="140" y="70" width="10" height="10" fill="#7D8A93"/>
<rect x="140" y="60" width="10" height="10" fill="#7D8A93"/>
<rect x="130" y="70" width="10" height="10" fill="#7D8A93"/>
<rect x="130" y="60" width="10" height="10" fill="#7D8A93"/>
<rect x="130" y="50" width="10" height="10" fill="#7D8A93"/>
<rect x="130" y="40" width="10" height="10" fill="#7D8A93"/>
<rect x="120" y="40" width="10" height="10" fill="#7D8A93"/>
<rect x="110" y="40" width="10" height="10" fill="#7D8A93"/>
<rect x="110" y="40" width="10" height="10" fill="#7D8A93"/>
<rect x="110" y="30" width="10" height="10" fill="#7D8A93"/>
<rect x="100" y="30" width="10" height="10" fill="#7D8A93"/>
<rect x="90" y="30" width="10" height="10" fill="#7D8A93"/>
<rect x="110" y="20" width="10" height="10" fill="#7D8A93"/>
<rect x="120" y="10" width="10" height="10" fill="#7D8A93"/>
<rect x="100" y="40" width="10" height="10" fill="#7D8A93"/>
<rect x="120" y="50" width="10" height="10" fill="#7D8A93"/>
<rect x="120" y="60" width="10" height="10" fill="#7D8A93"/>
<rect x="120" y="70" width="10" height="10" fill="#7D8A93"/>
<rect x="120" y="80" width="10" height="10" fill="#7D8A93"/>
<rect x="120" y="90" width="10" height="10" fill="#7D8A93"/>
<rect x="120" y="100" width="10" height="10" fill="#7D8A93"/>
</g>
<defs>
<clipPath id="clip0_105_207">
<rect width="160" height="160" fill="white"/>
</clipPath>
</defs>
</svg>
